<svg width="235" height="235" viewBox="0 0 235 235" fill="none" xmlns="http://www.w3.org/2000/svg">
<path fill-rule="evenodd" clip-rule="evenodd" d="M234.181 117.501C234.181 181.857 182.008 234.03 117.652 234.03C53.2961 234.03 1.125 181.857 1.125 117.501C1.125 53.1452 53.2961 0.9729 117.652 0.9729C182.008 0.9729 234.181 53.1452 234.181 117.501Z" stroke="#E9EAEC" stroke-dasharray="5.02 5.02"/>
<path fill-rule="evenodd" clip-rule="evenodd" d="M105.941 134.569C105.941 136.7 104.222 138.42 102.088 138.42C99.9596 138.42 98.2399 136.7 98.2399 134.569C98.2399 132.438 99.9596 130.716 102.088 130.716C104.222 130.716 105.941 132.438 105.941 134.569M94.3846 134.569C94.3846 136.7 92.6628 138.42 90.5339 138.42C88.4028 138.42 86.681 136.7 86.681 134.569C86.681 132.438 88.4028 130.716 90.5339 130.716C92.6628 130.716 94.3846 132.438 94.3846 134.569M82.8292 134.569C82.8292 136.7 81.1073 138.42 78.9763 138.42C76.8474 138.42 75.1255 136.7 75.1255 134.569C75.1255 132.438 76.8474 130.716 78.9763 130.716C81.1073 130.716 82.8292 132.438 82.8292 134.569M115.582 147.16V122.016C115.582 117.249 111.464 113.385 106.398 113.385H74.6936C69.6261 113.385 65.5098 117.249 65.5098 122.016V147.16C65.5098 151.925 69.6152 155.752 74.6936 155.752H75.1398V163.457C75.1398 163.457 84.624 156.992 85.4534 156.379C86.2849 155.765 86.2849 155.752 88.0176 155.752H106.398C111.464 155.752 115.582 151.925 115.582 147.16" fill="url(#paint0_linear_20_91)"/>
<path fill-rule="evenodd" clip-rule="evenodd" d="M204.187 117.501C204.187 165.293 165.444 204.036 117.653 204.036C69.8602 204.036 31.1191 165.293 31.1191 117.501C31.1191 69.7101 69.8602 30.9668 117.653 30.9668C165.444 30.9668 204.187 69.7101 204.187 117.501Z" stroke="#E9EAEC" stroke-dasharray="5.05 5.05"/>
<path fill-rule="evenodd" clip-rule="evenodd" d="M119.127 96.4842C122.077 96.4842 124.463 98.868 124.463 101.82C124.463 104.771 122.077 107.155 119.127 107.155C116.176 107.155 113.79 104.771 113.79 101.82C113.79 98.868 116.176 96.4842 119.127 96.4842M135.133 96.4842C138.085 96.4842 140.468 98.868 140.468 101.82C140.468 104.771 138.085 107.155 135.133 107.155C132.181 107.155 129.797 104.771 129.797 101.82C129.797 98.868 132.181 96.4842 135.133 96.4842M151.137 96.4842C154.089 96.4842 156.472 98.868 156.472 101.82C156.472 104.771 154.089 107.155 151.137 107.155C148.185 107.155 145.801 104.771 145.801 101.82C145.801 98.868 148.185 96.4842 151.137 96.4842M113.155 131.166H138.618C141.019 131.166 141.019 131.184 142.169 132.034C143.32 132.884 156.46 141.837 156.46 141.837V131.166H157.075C164.11 131.166 169.796 125.865 169.796 119.261V84.4291C169.796 77.8258 164.096 72.4727 157.075 72.4727H113.155C106.136 72.4727 100.434 77.8258 100.434 84.4291V119.261C100.434 125.865 106.136 131.166 113.155 131.166" fill="url(#paint1_linear_20_91)"/>
<defs>
<linearGradient id="paint0_linear_20_91" x1="90.546" y1="88.3488" x2="40.4736" y2="138.421" gradientUnits="userSpaceOnUse">
<stop stop-color="#2AE389"/>
<stop offset="1" stop-color="#0D6038"/>
</linearGradient>
<linearGradient id="paint1_linear_20_91" x1="100.434" y1="72.4727" x2="216.939" y2="211.835" gradientUnits="userSpaceOnUse">
<stop stop-color="#D1EDE1"/>
<stop offset="1" stop-color="#1EC675"/>
</linearGradient>
</defs>
</svg>
