<svg width="236" height="235" viewBox="0 0 236 235" fill="none" xmlns="http://www.w3.org/2000/svg">
<path d="M112.541 63.1642L112.541 111.004L112.227 111.004C111.782 111.004 111.354 111.182 111.04 111.5C110.725 111.817 110.548 112.248 110.548 112.696L110.548 113.759C110.549 114.207 110.726 114.637 111.041 114.954C111.355 115.271 111.782 115.449 112.227 115.449L112.541 115.449L112.541 119.455L112.227 119.455C111.784 119.455 111.36 119.631 111.045 119.945C110.731 120.259 110.552 120.685 110.548 121.131L110.548 122.194C110.549 122.642 110.726 123.072 111.041 123.389C111.355 123.705 111.782 123.883 112.227 123.883L112.541 123.883L112.541 129.319L110.864 131.269C110.569 131.612 110.402 132.048 110.39 132.502C110.379 132.956 110.524 133.4 110.801 133.758L111.734 134.945C111.904 135.165 112.026 135.419 112.091 135.689C112.156 135.96 112.164 136.241 112.113 136.515C112.062 136.789 111.953 137.048 111.795 137.277C111.636 137.505 111.431 137.696 111.194 137.839L105.308 141.353C99.5117 144.6 95.7715 150.056 95.7715 156.36C95.7715 166.559 105.524 174.529 117.989 174.529C130.453 174.529 140.209 166.559 140.209 156.36C140.209 149.166 135.34 143.077 128.084 140.118C126.508 139.477 124.983 138.718 123.519 137.849C123.282 137.706 123.078 137.514 122.92 137.285C122.763 137.057 122.656 136.797 122.606 136.523C122.556 136.249 122.564 135.968 122.631 135.698C122.697 135.427 122.82 135.175 122.992 134.956L123.922 133.758C124.2 133.401 124.347 132.957 124.336 132.502C124.325 132.048 124.157 131.612 123.861 131.269L122.185 129.319L122.185 123.891L122.499 123.891C122.943 123.891 123.37 123.713 123.684 123.396C123.998 123.08 124.175 122.65 124.175 122.202L124.175 121.139C124.175 120.691 123.998 120.261 123.684 119.944C123.37 119.628 122.943 119.45 122.499 119.45L122.182 119.45L122.182 115.435L122.496 115.435C122.716 115.435 122.934 115.392 123.137 115.307C123.341 115.222 123.526 115.097 123.681 114.941C123.837 114.784 123.96 114.597 124.045 114.392C124.129 114.187 124.172 113.968 124.172 113.746L124.172 112.683C124.172 112.235 123.996 111.805 123.682 111.488C123.367 111.17 122.941 110.992 122.496 110.991L122.182 110.991L122.182 88.4736L136.152 88.4736C136.374 88.4736 136.588 88.3846 136.745 88.2261C136.902 88.0677 136.99 87.8528 136.99 87.6288L136.99 85.5327C136.99 85.3087 136.902 85.0938 136.745 84.9354C136.588 84.7769 136.374 84.6879 136.152 84.6879L132.794 84.6879C132.572 84.6879 132.359 84.5989 132.201 84.4405C132.044 84.2821 131.956 84.0672 131.956 83.8431L131.956 82.2492C131.955 82.0253 131.867 81.8109 131.71 81.6526C131.553 81.4943 131.34 81.4051 131.118 81.4044L129.336 81.4044C129.114 81.4044 128.9 81.3154 128.743 81.1569C128.586 80.9985 128.498 80.7836 128.498 80.5596L128.498 75.4908C128.498 75.2667 128.586 75.0518 128.743 74.8934C128.9 74.735 129.114 74.646 129.336 74.646L131.118 74.646C131.34 74.6453 131.553 74.556 131.71 74.3978C131.867 74.2395 131.955 74.025 131.956 73.8012L131.956 72.2072C131.956 71.9832 132.044 71.7683 132.201 71.6099C132.359 71.4514 132.572 71.3624 132.794 71.3624L136.147 71.3624C136.369 71.3624 136.582 71.2734 136.74 71.115C136.897 70.9566 136.985 70.7417 136.985 70.5176L136.985 68.4056C136.985 68.1816 136.897 67.9667 136.74 67.8083C136.582 67.6498 136.369 67.5608 136.147 67.5608L122.177 67.5608L122.177 62.9915C122.177 62.3457 122.05 61.7064 121.802 61.1109C121.554 60.5155 121.191 59.9758 120.733 59.5234C120.276 59.071 119.734 58.715 119.139 58.4762C118.544 58.2374 117.907 58.1205 117.267 58.1325C114.618 58.1937 112.541 60.489 112.541 63.1642ZM133.5 156.36C133.5 162.662 126.555 167.768 117.989 167.768C109.422 167.768 102.48 162.662 102.48 156.36C102.48 150.059 109.422 144.953 117.989 144.953C126.555 144.953 133.5 150.059 133.5 156.36Z" fill="url(#paint0_linear_21_123)"/>
<path d="M122.182 123.891L114.428 123.891L122.182 125.158L122.182 123.891Z" fill="#1CAA66"/>
<path d="M122.182 115.441L114.428 115.441L122.182 116.708L122.182 115.441Z" fill="#1CAA66"/>
<path d="M122.184 67.5712L122.184 88.4866L124.962 88.4866L124.962 67.5712L122.184 67.5712Z" fill="#1CAA66"/>
<path d="M122.183 129.318C120.572 127.724 119.668 126.718 119.668 124.441L119.668 124.526L122.183 124.526L122.183 129.318Z" fill="#1CAA66"/>
<path d="M119.668 115.44L119.668 119.455L122.209 119.455L122.209 115.44L119.668 115.44Z" fill="#1CAA66"/>
<path d="M119.668 111.004L122.183 111.004L122.183 88.4866L122.209 88.4866L122.209 67.5738L122.183 67.5738L122.183 63.0045C122.183 62.1311 121.949 61.2739 121.507 60.5231C121.064 59.7722 120.429 59.1555 119.668 58.738L119.668 111.004Z" fill="#1CAA66"/>
<path fill-rule="evenodd" clip-rule="evenodd" d="M234.517 117.069C234.517 181.426 182.344 233.598 117.988 233.598C53.6321 233.598 1.46094 181.426 1.46094 117.069C1.46094 52.7133 53.6321 0.541016 117.988 0.541016C182.344 0.541016 234.517 52.7133 234.517 117.069Z" stroke="#E9EAEC" stroke-dasharray="5.02 5.02"/>
<path fill-rule="evenodd" clip-rule="evenodd" d="M204.523 117.069C204.523 164.861 165.78 203.604 117.989 203.604C70.1961 203.604 31.4551 164.861 31.4551 117.069C31.4551 69.2779 70.1961 30.5347 117.989 30.5347C165.78 30.5347 204.523 69.2779 204.523 117.069Z" stroke="#E9EAEC" stroke-dasharray="5.05 5.05"/>
<defs>
<linearGradient id="paint0_linear_21_123" x1="88.5451" y1="50.479" x2="155.145" y2="206.297" gradientUnits="userSpaceOnUse">
<stop stop-color="#82DDB1"/>
<stop offset="1" stop-color="#C5EBDA"/>
</linearGradient>
</defs>
</svg>
