<svg width="708" height="705" viewBox="0 0 708 705" fill="none" xmlns="http://www.w3.org/2000/svg">
<g id="Enable Push Notifications">
<path id="Fill 1" fill-rule="evenodd" clip-rule="evenodd" d="M465.338 451.369L462.755 461.571L207.738 397.017L210.318 386.814C230.723 391.978 246.55 372.324 249.11 362.226L263.826 304.081C275.479 261.767 314.012 232.487 357.906 232.595C361.665 218.559 376.094 210.233 390.126 213.995C404.161 217.758 412.491 232.184 408.725 246.219C447.221 267.705 466.951 311.993 457.174 354.978L442.923 411.288C439.898 423.221 455.139 448.786 465.338 451.369" fill="url(#paint0_linear_19_2)"/>
<path id="Fill 3" fill-rule="evenodd" clip-rule="evenodd" d="M289.389 428.486C291.837 454.522 314.926 473.647 340.963 471.201C355.143 469.871 367.972 462.225 375.894 450.382L289.389 428.486Z" fill="#FFDA3E"/>
<path id="Stroke 5" fill-rule="evenodd" clip-rule="evenodd" d="M703.55 352.504C703.55 545.572 547.033 702.089 353.965 702.089C160.896 702.089 4.38281 545.572 4.38281 352.504C4.38281 159.436 160.896 2.9187 353.965 2.9187C547.033 2.9187 703.55 159.436 703.55 352.504Z" stroke="#E9EAEC" stroke-dasharray="5.02 5.02"/>
<path id="Stroke 7" fill-rule="evenodd" clip-rule="evenodd" d="M613.57 352.504C613.57 495.878 497.34 612.108 353.966 612.108C210.588 612.108 94.3652 495.878 94.3652 352.504C94.3652 209.13 210.588 92.9004 353.966 92.9004C497.34 92.9004 613.57 209.13 613.57 352.504Z" stroke="#E9EAEC" stroke-dasharray="5.05 5.05"/>
<path id="Fill 13" fill-rule="evenodd" clip-rule="evenodd" d="M289.389 428.486C291.837 454.522 314.926 473.647 340.963 471.201C355.143 469.871 367.972 462.225 375.894 450.382L289.389 428.486Z" fill="url(#paint1_linear_19_2)"/>
<path id="Fill 15" fill-rule="evenodd" clip-rule="evenodd" d="M495.024 272.112C500.962 279.256 505.422 287.67 508.453 296.589C511.542 305.511 513.051 314.989 513.205 324.474C513.205 329.22 512.865 333.959 512.252 338.657C511.444 343.333 510.511 347.974 509.042 352.47C506.203 361.467 501.912 369.999 496.065 377.26C495.812 377.574 495.361 377.621 495.048 377.372C494.805 377.173 494.724 376.849 494.818 376.567C497.863 367.9 500.386 359.352 502.08 350.679C502.394 348.489 502.825 346.334 503.188 344.168C503.438 341.982 503.768 339.813 503.956 337.63C504.098 335.444 504.381 333.272 504.472 331.086C504.505 328.896 504.61 326.71 504.6 324.524C504.65 315.771 503.673 307.03 501.973 298.354C500.224 289.67 497.594 281.119 494.435 272.452C494.371 272.274 494.461 272.075 494.64 272.011C494.781 271.957 494.933 272.004 495.024 272.112" fill="url(#paint2_linear_19_2)"/>
<path id="Fill 17" fill-rule="evenodd" clip-rule="evenodd" d="M523.829 275.35C529.562 281.955 533.88 289.789 536.888 298.105C539.902 306.432 541.644 315.276 541.954 324.175C542.29 333.071 541.206 342.013 538.828 350.531C536.453 359.046 532.752 367.184 527.531 374.196C527.497 374.24 527.433 374.25 527.393 374.22C527.359 374.193 527.346 374.149 527.356 374.112C529.518 365.671 531.33 357.46 532.428 349.204C533.526 340.952 533.887 332.703 533.58 324.485C533.243 316.27 532.25 308.082 530.502 299.954C528.76 291.817 526.298 283.787 523.492 275.545C523.459 275.441 523.513 275.33 523.617 275.293C523.695 275.266 523.779 275.289 523.829 275.35" fill="url(#paint3_linear_19_2)"/>
<path id="Fill 19" fill-rule="evenodd" clip-rule="evenodd" d="M222.776 317.295C220.957 308.238 220.937 298.777 222.379 289.528C223.773 280.255 226.771 271.215 230.934 262.771C235.198 254.377 240.648 246.567 247.229 239.884C253.763 233.178 261.342 227.496 269.702 223.528C269.853 223.457 270.028 223.521 270.099 223.67C270.156 223.791 270.126 223.932 270.028 224.02C263.228 230.194 256.967 236.63 251.433 243.599C245.939 250.581 241.079 258.002 237.151 265.9C233.116 273.748 230.038 282.064 227.697 290.643C225.393 299.242 223.972 308.117 223.066 317.282C223.056 317.359 222.985 317.42 222.904 317.413C222.84 317.407 222.789 317.356 222.776 317.295" fill="url(#paint4_linear_19_2)"/>
<path id="Fill 21" fill-rule="evenodd" clip-rule="evenodd" d="M194.224 299.391C192.502 290.886 192.472 282.025 193.722 273.348C195.012 264.672 197.588 256.147 201.391 248.208C205.153 240.256 210.01 232.815 215.854 226.298C221.671 219.77 228.394 214.064 235.885 209.753C229.768 215.843 224.15 222.195 219.249 229.026C214.365 235.863 210.118 243.075 206.676 250.66C203.267 258.255 200.532 266.144 198.582 274.284C196.578 282.422 195.375 290.772 194.51 299.378C194.5 299.455 194.432 299.512 194.348 299.506C194.288 299.499 194.234 299.452 194.224 299.391" fill="url(#paint5_linear_19_2)"/>
<path id="Fill 23" fill-rule="evenodd" clip-rule="evenodd" d="M465.339 451.369C465.339 451.369 450.256 445.509 442.328 437.145C431.287 425.501 432.014 412.797 439.478 388.276C448.259 359.077 448.02 328.319 444.638 314.22C432.86 265.091 408.727 246.219 408.727 246.219C447.222 267.705 466.953 311.993 457.175 354.978L442.924 411.288C440.425 419.607 455.14 448.786 465.339 451.369L462.756 461.571L465.339 451.369Z" fill="#62CB92"/>
</g>
<defs>
<linearGradient id="paint0_linear_19_2" x1="336.538" y1="213.092" x2="336.538" y2="461.571" gradientUnits="userSpaceOnUse">
<stop stop-color="#80DCB0"/>
<stop offset="1" stop-color="#CCECDE"/>
</linearGradient>
<linearGradient id="paint1_linear_19_2" x1="332.641" y1="407.023" x2="298.457" y2="475.912" gradientUnits="userSpaceOnUse">
<stop stop-color="#1EC675"/>
<stop offset="1" stop-color="#1DB56C"/>
</linearGradient>
<linearGradient id="paint2_linear_19_2" x1="503.81" y1="219.217" x2="467.382" y2="225.703" gradientUnits="userSpaceOnUse">
<stop stop-color="#1EC675"/>
<stop offset="1" stop-color="#1CAA66"/>
</linearGradient>
<linearGradient id="paint3_linear_19_2" x1="532.748" y1="225.804" x2="496.941" y2="232.509" gradientUnits="userSpaceOnUse">
<stop stop-color="#1EC675"/>
<stop offset="1" stop-color="#1CAA66"/>
</linearGradient>
<linearGradient id="paint4_linear_19_2" x1="245.739" y1="176.542" x2="168.908" y2="216.447" gradientUnits="userSpaceOnUse">
<stop stop-color="#1EC675"/>
<stop offset="1" stop-color="#1CAA66"/>
</linearGradient>
<linearGradient id="paint5_linear_19_2" x1="214.367" y1="164.877" x2="144.386" y2="198.432" gradientUnits="userSpaceOnUse">
<stop stop-color="#1EC675"/>
<stop offset="1" stop-color="#1CAA66"/>
</linearGradient>
</defs>
</svg>
